<svg xmlns="http://www.w3.org/2000/svg" viewBox="0 0 200 200"><defs/><defs><linearGradient id="a" x1="23.352" x2="58.327" y1="-4.663" y2="81.608" gradientUnits="userSpaceOnUse"><stop stop-color="#01fdff" offset="0"/><stop stop-color="#dc00ff" offset="1"/></linearGradient></defs><g transform="translate(9.924 20) scale(2.1444)" fill="url(#a)"><path d="M28 48.498L14 72.746h13.986l6.998-12.121.025.016zm13.992 24.236l-.006.012H42zM49 60.623l-7 12.123h28l7-12.123H63zM28 0l-7.045 12.199 6.957 12.049H42zM14 24.248L0 48.498l7 12.123 3.5-6.063L21 36.374zM63 36.371l-7 12.127h28l-7-12.127H63.002zM42 0l7 12.125 7 12.123h14l-3.5-6.06L56-.002zM28 48.498h28L42 24.249z"/></g></svg>