<?xml version="1.0" encoding="UTF-8"?>
<svg width="200px" height="200px" version="1.1" viewBox="0 0 200 200" xmlns="http://www.w3.org/2000/svg" xmlns:cc="http://creativecommons.org/ns#" xmlns:dc="http://purl.org/dc/elements/1.1/" xmlns:osb="http://www.openswatchbook.org/uri/2009/osb" xmlns:rdf="http://www.w3.org/1999/02/22-rdf-syntax-ns#" xmlns:xlink="http://www.w3.org/1999/xlink">
 <metadata>
  <rdf:RDF>
   <cc:Work rdf:about="">
    <dc:format>image/svg+xml</dc:format>
    <dc:type rdf:resource="http://purl.org/dc/dcmitype/StillImage"/>
    <dc:title/>
   </cc:Work>
  </rdf:RDF>
 </metadata>
 <defs>
  <linearGradient id="linearGradient1498">
   <stop stop-color="#01fdff" offset="0"/>
   <stop stop-color="#dc00ff" offset="1"/>
  </linearGradient>
  <linearGradient id="linearGradient1502" x1="23.352" x2="58.327" y1="-4.6633" y2="81.608" gradientUnits="userSpaceOnUse" xlink:href="#linearGradient1498"/>
 </defs>
 <g transform="matrix(.89391 0 0 .89391 13.484 8.9672)">
  <path d="m186.53 154.23-90.062 51.998-90.061-51.996v-103.99l90.061-51.998 90.062 51.998z" color="#000000" color-rendering="auto" dominant-baseline="auto" fill-opacity=".89516" image-rendering="auto" shape-rendering="auto" solid-color="#000000" stop-color="#000000" style="font-feature-settings:normal;font-variant-alternates:normal;font-variant-caps:normal;font-variant-east-asian:normal;font-variant-ligatures:normal;font-variant-numeric:normal;font-variant-position:normal;font-variation-settings:normal;inline-size:0;isolation:auto;mix-blend-mode:normal;shape-margin:0;shape-padding:0;text-decoration-color:#000000;text-decoration-line:none;text-decoration-style:solid;text-indent:0;text-orientation:mixed;text-transform:none;white-space:normal"/>
 </g>
 <g transform="matrix(1.073 .00057661 -.00057661 1.073 -7.5608 -14.128)">
  <g transform="matrix(2.1444 0 0 2.1444 9.9244 20)" fill="url(#linearGradient1502)">
   <path d="m28 48.498-14 24.248h13.986l6.998-12.121 0.02539 0.01563zm13.992 24.236-0.0059 0.01172h0.013712z"/>
   <path d="m49.008 60.598-7.0075 12.148h14 14l7.0204-12.165z"/>
   <path d="m28 0-7.0449 12.199 6.957 12.049h14.088z"/>
   <path d="m14 24.248-6.9674 12.13-7 12.125 7.0129 12.116 13.987-24.241z"/>
   <path d="m63 36.371-7 12.127h28l-7-12.127h-13.998z"/>
   <path d="m42-1.399e-8 14 24.248h14l-7-12.123-7-12.125z"/>
   <path d="m28 48.498h28l-14-24.249z"/>
  </g>
 </g>
</svg>
